<svg width="640" height="550" viewBox="0 0 640 550" fill="none" xmlns="http://www.w3.org/2000/svg">
<g clip-path="url(#clip0_5_15)">
<path d="M635.485 483.577L586.405 447.022C580.944 442.955 572.679 443.46 567.944 448.154C563.21 452.849 563.8 459.951 569.261 464.02L591.828 480.827H109.896L231.174 419.019L302.51 453.512C305.686 455.048 309.464 455.376 312.934 454.418C316.404 453.46 319.25 451.302 320.79 448.464L353.964 387.326L379.535 406.183C384.741 410.023 392.514 409.754 397.346 405.569L475.818 337.623L579.684 398.992C585.639 402.511 593.789 401.215 597.883 396.096C601.978 390.977 600.47 383.975 594.513 380.456L494.558 321.397L611.661 219.997C616.754 215.588 616.721 208.467 611.59 204.091C606.461 199.714 598.175 199.74 593.081 204.152L472.635 308.446L406.055 269.107C402.884 267.232 398.911 266.654 395.199 267.523C391.486 268.392 388.406 270.625 386.778 273.622L344.82 350.947L222.631 260.843C219.688 258.672 215.78 257.735 211.95 258.285C208.125 258.835 204.779 260.815 202.818 263.691L75.255 450.657V331.265L186.784 149.755L323.065 265.62C325.855 267.991 329.744 269.152 333.641 268.809C337.545 268.456 341.059 266.615 343.213 263.794L398.275 191.683L445.701 237.283C448.394 239.87 452.305 241.237 456.353 241.01C460.381 240.773 464.058 238.952 466.314 236.075L588.686 80.0239C592.725 74.8731 591.141 67.882 585.148 64.4102C579.153 60.9383 571.019 62.3015 566.979 67.4513L454.009 211.514L406.438 165.776C403.729 163.171 399.761 161.798 395.708 162.053C391.651 162.313 387.968 164.178 385.738 167.099L330.104 239.958L192.654 123.099C189.708 120.595 185.556 119.434 181.461 119.98C177.366 120.52 173.81 122.696 171.876 125.845L75.255 283.093V49.2723L94.8125 68.6651C97.4013 71.2315 101.044 72.5463 104.709 72.5463C107.746 72.5463 110.799 71.6418 113.275 69.7984C118.736 65.7304 119.329 58.6266 114.593 53.9344L72.0575 11.7563C71.9575 11.6585 71.8663 11.5736 71.7738 11.4877C71.7338 11.449 71.6938 11.4104 71.6525 11.3728C71.5588 11.2879 71.47 11.2159 71.3825 11.144C70.09 10.0407 68.5238 9.15342 66.7413 8.58301C61.6238 6.94161 55.8563 8.20596 52.2763 11.7541L9.74 53.9312C5.0075 58.6255 5.5975 65.7293 11.06 69.7984C16.5225 73.8665 24.7888 73.3584 29.5213 68.6662L49.0788 49.2733V328.562C49.0788 328.584 49.0788 328.606 49.0788 328.628V480.829H13.0875C5.85875 480.829 0 485.866 0 492.076C0 498.286 5.86 503.323 13.0875 503.323H49.0788V530.879C49.0788 537.09 54.9388 542.126 62.1663 542.126C69.3938 542.126 75.2538 537.089 75.2538 530.879V503.323H591.825L569.259 520.13C563.796 524.198 563.205 531.302 567.94 535.994C570.529 538.561 574.171 539.875 577.836 539.875C580.874 539.875 583.926 538.971 586.403 537.128L635.483 500.573C635.56 500.515 635.625 500.459 635.698 500.402C637.216 499.221 638.426 497.729 639.174 496.005C641.084 491.608 639.613 486.652 635.485 483.577ZM403.97 295.172L453.896 324.673L387.343 382.302L365.45 366.158L403.97 295.172ZM217.479 286.68L333.336 372.117L303.036 427.958L237.421 396.231C233.341 394.26 228.35 394.308 224.328 396.358L99.1063 460.175L217.479 286.68Z" fill="#231F20"/>
</g>
<defs>
<clipPath id="clip0_5_15">
<rect width="640" height="550" fill="white"/>
</clipPath>
</defs>
</svg>
