<svg width="35" height="30" viewBox="0 0 35 30" fill="none" xmlns="http://www.w3.org/2000/svg">
<g clip-path="url(#clip0_18_14)">
<path d="M34.6553 0.901727C34.4103 0.689808 34.0691 0.580313 33.7227 0.602131L28.2597 0.944556C27.604 0.985667 27.1113 1.47456 27.1593 2.03668C27.2072 2.5988 27.7778 3.0192 28.4334 2.97991L30.7033 2.83759L22.7064 9.70102L13.4059 2.95021C12.9332 2.60698 12.2326 2.63193 11.7947 3.00728L0.348674 12.8183C-0.116225 13.2168 -0.116225 13.8629 0.348674 14.2614C0.581183 14.4606 0.885812 14.5603 1.19044 14.5603C1.49507 14.5603 1.7997 14.4606 2.03221 14.2614L12.7033 5.11466L22.0042 11.8659C22.477 12.2093 23.1781 12.1841 23.6159 11.8083L32.3552 4.30779L32.1746 6.17637C32.1203 6.73799 32.6076 7.23092 33.2628 7.27749C33.2963 7.27991 33.3294 7.28112 33.3623 7.28112C33.9753 7.28102 34.4959 6.87779 34.5474 6.34486L34.9957 1.70405C35.0246 1.40678 34.9003 1.11365 34.6553 0.901727Z" fill="black"/>
<path d="M10.6187 12.5971C10.1739 12.4393 9.66176 12.5266 9.32118 12.8183L4.3744 17.0583C4.1512 17.2497 4.0257 17.5092 4.0257 17.7798V28.3802C4.0257 28.9437 4.55871 29.4006 5.21617 29.4006H10.163C10.8204 29.4006 11.3534 28.9437 11.3534 28.3802V13.5398C11.3534 13.1271 11.0634 12.755 10.6187 12.5971ZM8.97248 27.3598H6.40676V18.2025L8.9726 16.0032L8.97248 27.3598Z" fill="black"/>
<path d="M15.9519 12.8183C15.6114 12.5265 15.0995 12.4393 14.6544 12.5971C14.2096 12.7551 13.9195 13.1271 13.9195 13.5399V28.3803C13.9195 28.9439 14.4525 29.4007 15.11 29.4007H20.0568C20.7142 29.4007 21.2472 28.9439 21.2472 28.3803V17.78C21.2472 17.5094 21.1218 17.2499 20.8985 17.0585L15.9519 12.8183ZM18.8663 27.3598H16.3004V16.0033L18.8663 18.2026V27.3598Z" fill="black"/>
<path d="M30.4059 12.5971C29.9609 12.4393 29.4489 12.5266 29.1084 12.8183L24.1616 17.0585C23.9384 17.2499 23.8129 17.5094 23.8129 17.78V28.3803C23.8129 28.9438 24.3459 29.4007 25.0034 29.4007H29.9502C30.6076 29.4007 31.1407 28.9438 31.1407 28.3803V13.5399C31.1408 13.1271 30.8508 12.755 30.4059 12.5971ZM28.7598 27.3598H26.194V18.2026L28.7598 16.0032V27.3598Z" fill="black"/>
</g>
<defs>
<clipPath id="clip0_18_14">
<rect width="35" height="30" fill="white"/>
</clipPath>
</defs>
</svg>
